<?xml version="1.0" encoding="UTF-8" standalone="no"?>
<!-- Created with Inkscape (http://www.inkscape.org/) -->

<svg
   width="120"
   height="120"
   viewBox="0 0 120 120"
   version="1.1"
   id="svg5"
   xml:space="preserve"
   inkscape:version="1.2.2 (732a01da63, 2022-12-09)"
   sodipodi:docname="icone.svg"
   xmlns:inkscape="http://www.inkscape.org/namespaces/inkscape"
   xmlns:sodipodi="http://sodipodi.sourceforge.net/DTD/sodipodi-0.dtd"
   xmlns="http://www.w3.org/2000/svg"
   xmlns:svg="http://www.w3.org/2000/svg"><sodipodi:namedview
     id="namedview7"
     pagecolor="#ffffff"
     bordercolor="#000000"
     borderopacity="0.25"
     inkscape:showpageshadow="2"
     inkscape:pageopacity="0.0"
     inkscape:pagecheckerboard="0"
     inkscape:deskcolor="#d1d1d1"
     inkscape:document-units="px"
     showgrid="false"
     inkscape:zoom="2.8107495"
     inkscape:cx="39.847024"
     inkscape:cy="50.876111"
     inkscape:window-width="1280"
     inkscape:window-height="657"
     inkscape:window-x="-8"
     inkscape:window-y="-8"
     inkscape:window-maximized="1"
     inkscape:current-layer="Layer_1-4" /><defs
     id="defs2">
			
			
			
			
		</defs><g
     inkscape:label="Camada 1"
     inkscape:groupmode="layer"
     id="layer1"><g
       id="layer1-8"
       transform="matrix(0.32322228,0,0,0.32322228,8.4219531,6.2653348)"
       inkscape:label="Camada 1">
	<g
   id="Layer_1-4"
   transform="matrix(5.1161149,0,0,5.1161149,6.0169212,90.795887)">
		<circle
   style="fill:#0067cd;fill-opacity:1;stroke:#0067cd;stroke-width:3.40852;stroke-opacity:1"
   id="path2528"
   cx="30.136047"
   cy="14.719738"
   r="34.402237" /><g
   id="g3015"
   transform="matrix(1.1246871,0,0,1.1246871,-4.3618189,-5.5694047)"><path
     id="path3918-7"
     class="st0"
     d="M 7.6809233,38.089018 C 6.2578232,38.735882 6.5165687,34.207836 6.6459416,33.819718 7.6809233,25.281116 17.771997,-1.4990449 25.146244,-5.7683459 c 3.363692,-2.0699641 6.08052,0.3881182 6.856756,3.8811827 0.517491,2.06996407 0.776237,6.0805196 1.164355,8.5386019 1.164355,6.9861293 3.104946,17.4653223 11.384803,18.8884223 6.59801,1.164355 8.912243,-1.106802 18.274079,-1.387138 C 52.62019,28.580396 51.024605,30.502062 47.710411,31.339479 35.342823,34.464467 28.684225,9.5689351 26.439972,1.8646468 26.439972,1.217783 26.310599,0.70029197 26.310599,0.31217367 24.628753,2.1233923 22.300044,5.7458294 21.65318,6.7808115 18.677607,11.438231 6.5165687,33.690345 7.6809233,38.089018 Z M 27.733699,-0.85218113 h 0.129373 c 0,-0.12937276 -0.129373,-0.12937276 -0.129373,0 z"
     sodipodi:nodetypes="cccccccsccccccc"
     style="fill:#ffffff;fill-opacity:1;stroke-width:1.29373" /><path
     id="path3924-0"
     class="st0"
     d="m 24.628753,21.011815 c -0.776236,-0.129373 -1.4231,-0.129373 -1.811218,0 -0.646864,0.129372 -0.90561,0.388118 -1.552473,0.517491 -0.646864,0.129372 -1.164355,0 -1.552473,-0.129373 -0.646864,-0.129373 -1.034982,-0.776237 -0.90561,-1.293728 0.129373,-0.646863 0.776237,-1.034982 1.423101,-0.776236 0.776236,0.388118 1.293727,0.517491 1.681845,0.517491 0.776237,0 0.90561,-0.388118 2.199337,-0.517491 1.164355,-0.129373 1.552473,0 1.681846,0.129373 0.388118,0.258745 0.517491,0.646863 0.517491,0.646863 0,0.129373 0.129373,0.388119 0,0.517491 -0.258745,0.388119 -0.905609,0.517491 -1.681846,0.388119 z"
     style="fill:#ffffff;fill-opacity:1;stroke-width:1.29373" /></g>
	</g>
</g></g><style
     type="text/css"
     id="style1049">
	.st0{fill-rule:evenodd;clip-rule:evenodd;fill:#0067CD;}
	.st1{fill:#0067CD;}
</style></svg>
