<?xml version="1.0" encoding="utf-8"?>
<!-- Generator: Adobe Illustrator 27.3.1, SVG Export Plug-In . SVG Version: 6.00 Build 0)  -->
<svg version="1.1"
	 id="svg5" xmlns:sodipodi="http://sodipodi.sourceforge.net/DTD/sodipodi-0.dtd" xmlns:svg="http://www.w3.org/2000/svg" xmlns:inkscape="http://www.inkscape.org/namespaces/inkscape"
	 xmlns="http://www.w3.org/2000/svg" xmlns:xlink="http://www.w3.org/1999/xlink" x="0px" y="0px" viewBox="0 0 572.9 202.4"
	 style="enable-background:new 0 0 572.9 202.4;" xml:space="preserve">
<style type="text/css">
	.st0{fill-rule:evenodd;clip-rule:evenodd;fill:#0067CD;}
	.st1{fill:#0067CD;}
</style>
<sodipodi:namedview  bordercolor="#000000" borderopacity="0.25" id="namedview7" inkscape:current-layer="Layer_1-4" inkscape:cx="306.9083" inkscape:cy="125.97983" inkscape:deskcolor="#d1d1d1" inkscape:document-units="mm" inkscape:pagecheckerboard="0" inkscape:pageopacity="0.0" inkscape:showpageshadow="2" inkscape:window-height="657" inkscape:window-maximized="1" inkscape:window-width="1280" inkscape:window-x="-8" inkscape:window-y="-8" inkscape:zoom="0.7461512" pagecolor="#ffffff" showgrid="false">
	</sodipodi:namedview>
<g id="layer1" transform="translate(-6.0340582,-91.931669)" inkscape:groupmode="layer" inkscape:label="Camada 1">
	<g id="Layer_1-4" transform="matrix(5.1161149,0,0,5.1161149,6.0169212,90.795887)">
		<g id="g813">
			<path id="path3918-7" class="st0" d="M23.9,39.4c-1.1,0.5-0.9-3-0.8-3.3c0.8-6.6,8.6-27.3,14.3-30.6c2.6-1.6,4.7,0.3,5.3,3
				c0.4,1.6,0.6,4.7,0.9,6.6c0.9,5.4,2.4,13.5,8.8,14.6c5.1,0.9,16.2-3,21.5-4.4c11.7-3,24.7-4,35.7,2.2c1.3,0.7,1.4,0.7,2.4,1.8
				c-1.4-0.1-1.5-0.3-2.9-0.7c-11.3-3.5-20-3.1-31.3,0.2c-6.7,1.9-16.3,6.1-22.9,6.5c-13.8,1-16-13.3-16.5-23.9
				c0-0.5-0.1-0.9-0.1-1.2c-1.3,1.4-3.1,4.2-3.6,5C32.4,18.8,23,36,23.9,39.4L23.9,39.4L23.9,39.4z M39.4,9.3c0,0,0.1,0,0.1,0
				C39.5,9.2,39.4,9.2,39.4,9.3z"/>
			<g id="text3922-1" transform="translate(20.77,6.75)">
				<path id="path1865" class="st1" d="M43.6-0.4c0.1,0.1,0.2,0.2,0.2,0.3c0,0.2-0.3,0.5-1,1c-0.4,0.3-0.8,0.4-1.2,0.3
					C41.4,1.1,41.2,1,41,0.9c0,0-0.1-0.1-0.1-0.1c0-0.1,0-0.1,0-0.1c0,0,0.1,0,0.1,0c0.3-0.2,0.8-0.6,1.3-1.3
					c0.2-0.2,0.3-0.3,0.4-0.3C42.9-0.9,43.2-0.8,43.6-0.4L43.6-0.4z M41.9,4.3c-1,4.7-2,8.3-2.9,10.6c-1.8,4.6-3.8,6.9-6,6.9
					c-1.3,0-2.7-0.7-4.3-2.2c-0.1-0.1-0.2-0.3-0.2-0.4c0-0.2,0.1-0.3,0.3-0.3c0.1,0,0.2,0,0.3,0.1c1.2,1,2.3,1.5,3.3,1.5
					c3.1,0,5.6-4.5,7.6-13.5c0.2-0.9,0.4-1.8,0.5-2.8c-0.2,0.2-0.5,0.5-0.8,0.9c-0.3,0.4-0.5,0.6-0.6,0.7C38.9,6,38.8,6,38.8,6
					c-0.1,0-0.2-0.1-0.2-0.3c0-0.1,0-0.2,0.1-0.3c0.3-0.4,0.9-1,1.6-2c0.1-0.2,0.2-0.3,0.2-0.3c0-0.3,0.1-0.4,0.3-0.4
					c0.2,0,0.5,0.2,0.9,0.5C41.9,3.5,42,3.8,41.9,4.3z"/>
				<path id="path1867" class="st1" d="M51.4,3.9c-1,1.8-1.7,4-2.2,6.4c0.2-0.4,0.5-0.8,0.8-1.4c0-0.1,0.1-0.2,0.2-0.2
					c0.1,0,0.2,0.1,0.2,0.2c0,0,0,0.1,0,0.1c-0.5,1.1-0.8,1.9-0.9,2.5c-0.1,0.4-0.2,0.6-0.4,0.6s-0.4-0.1-0.9-0.4
					c-0.2-0.2-0.3-0.5-0.2-0.9c0.3-1.6,0.7-3,1.1-4.2c-1.4,2.3-2.6,4-3.6,5.1c-0.2,0.2-0.4,0.4-0.7,0.4c-0.2,0-0.5-0.1-0.7-0.3
					c-0.5-0.1-0.8-0.4-0.8-0.8c0-0.1,0-0.2,0-0.3c0.2-2.1,0.6-3.9,1.2-5.3c-0.1,0.1-0.3,0.3-0.6,0.5c-0.1,0.1-0.2,0.1-0.2,0.1
					c-0.1,0,0-0.1,0-0.3c0.4-0.6,0.6-1,0.7-1.2c0.2-0.6,0.5-1,0.7-1.3c0.1-0.2,0.3-0.2,0.4-0.2c0.2,0,0.5,0.1,0.9,0.4
					c0.1,0.1,0.2,0.1,0.2,0.2c0,0-0.1,0.1-0.2,0.4c-0.4,0.6-0.8,1.6-1.2,3c-0.5,1.5-0.7,2.8-0.7,3.8c0,0.3,0.1,0.5,0.2,0.5
					c0.1,0,0.3-0.1,0.6-0.4c0.6-0.6,1.4-1.8,2.5-3.4c1-1.5,1.5-2.5,1.7-2.9c0.3-0.8,0.6-1.2,0.8-1.3c0.1-0.1,0.3-0.1,0.4-0.1
					c0.1,0,0.3,0.1,0.6,0.2c0.3,0.2,0.4,0.3,0.4,0.3c0,0,0,0.1-0.1,0.1C51.4,3.8,51.4,3.9,51.4,3.9L51.4,3.9z"/>
				<path id="path1869" class="st1" d="M65.6-5.3c0.1,0.1,0.1,0.1,0.1,0.2c0,0.1-0.1,0.2-0.3,0.2c-0.1,0-0.1,0-0.2-0.1
					c-0.3-0.2-0.6-0.3-0.8-0.3c-0.5,0-1,0.5-1.5,1.4c-2,3.3-3.5,7.7-4.5,13.3C58.7,9.3,59,9,59.3,8.6c0.2-0.2,0.3-0.3,0.4-0.3
					c0.2,0,0.2,0.1,0.1,0.3c-0.7,1-1.2,2-1.4,3.2c-0.1,0.3-0.2,0.4-0.3,0.4c-0.1,0-0.1,0-0.2-0.1c-0.4-0.3-0.6-0.4-0.6-0.4
					c-0.1-0.1-0.2-0.3-0.2-0.6c0-0.1,0-0.3,0.1-0.4c0.3-1.7,0.6-3,0.8-3.8c-0.7,1-1.5,2.1-2.5,3.1c-0.9,1-1.6,1.7-2,2
					c-0.3,0.2-0.6,0.3-0.7,0.3c-0.1,0-0.3-0.1-0.6-0.3c-0.5-0.3-0.7-0.6-0.7-1c0-0.1,0-0.1,0-0.2c0.2-1.1,0.6-2.4,1.5-3.8
					c0.8-1.5,1.8-2.7,2.9-3.7c0.3-0.3,0.7-0.5,0.9-0.5c0.3,0,0.8,0.4,1.5,1.1c0.1,0.1,0.1,0.1,0.1,0.2c0,0.1-0.1,0.2-0.2,0.2
					c-0.1,0-0.1,0-0.2,0c-0.5-0.2-0.9-0.2-1.3,0c-0.7,0.5-1.5,1.4-2.3,2.7c-1,1.5-1.5,2.8-1.7,4c0,0.3,0,0.4,0.2,0.4
					c0.2,0,0.5-0.2,0.9-0.5c0.8-0.8,1.7-1.8,2.7-3c1-1.3,1.6-2.2,1.9-2.9c0.2-0.4,0.3-0.7,0.4-1c0.8-2.7,1.6-5.1,2.6-7
					c0.7-1.5,1.4-2.5,2-3c0.2-0.2,0.4-0.3,0.6-0.3c0.2,0,0.5,0.1,0.8,0.4C64.9-5.9,65.2-5.6,65.6-5.3L65.6-5.3z"/>
				<path id="path1871" class="st1" d="M68.8,4.6c-0.7,1.9-1.2,3.5-1.4,4.8c0.1-0.1,0.3-0.3,0.4-0.5c0.2-0.2,0.3-0.3,0.3-0.4
					c0.1-0.1,0.2-0.2,0.3-0.2c0.1,0,0.2,0.1,0.2,0.2c0,0.1,0,0.1-0.1,0.2c-0.7,1-1.2,2.1-1.4,3.1c-0.1,0.3-0.2,0.4-0.3,0.4
					c-0.1,0-0.4-0.1-0.7-0.4c-0.2-0.1-0.3-0.2-0.3-0.3c0-0.1,0-0.2,0-0.5c0.3-1.9,0.7-3.4,1.2-4.7c-0.6,1-1.5,2.2-2.6,3.5
					c-1,1.1-1.7,1.8-2.1,2.1c-0.3,0.2-0.5,0.3-0.7,0.3c-0.1,0-0.3-0.1-0.6-0.3c-0.4-0.2-0.6-0.6-0.6-1c0-0.1,0-0.2,0-0.3
					c0.1-1.1,0.6-2.4,1.4-3.8c0.8-1.5,1.8-2.7,2.9-3.7c0.3-0.3,0.7-0.5,0.9-0.5c0.3,0,0.8,0.4,1.5,1.1c0.1,0.1,0.1,0.1,0.1,0.2
					c0,0.1-0.1,0.2-0.2,0.2c-0.1,0-0.1,0-0.2,0c-0.5-0.2-0.9-0.2-1.3,0c-0.7,0.5-1.5,1.4-2.3,2.7c-1,1.5-1.6,2.8-1.8,4
					c0,0.1,0,0.1,0,0.1c0,0.2,0.1,0.3,0.2,0.3c0.3,0,0.6-0.2,0.9-0.5c0.8-0.8,1.7-1.8,2.7-3c1-1.3,1.6-2.2,1.9-2.9
					c0.2-0.5,0.3-0.8,0.4-1c0.1-0.3,0.2-0.5,0.3-0.5c0.1,0,0.4,0.2,0.8,0.5c0.2,0.1,0.3,0.2,0.3,0.3C68.9,4.2,68.9,4.4,68.8,4.6
					L68.8,4.6z"/>
			</g>
			<path id="path3924-0" class="st0" d="M37,26.2c-0.6-0.1-1.1-0.1-1.4,0c-0.5,0.1-0.7,0.3-1.2,0.4c-0.5,0.1-0.9,0-1.2-0.1
				c-0.5-0.1-0.8-0.6-0.7-1c0.1-0.5,0.6-0.8,1.1-0.6c0.6,0.3,1,0.4,1.3,0.4c0.6,0,0.7-0.3,1.7-0.4c0.9-0.1,1.2,0,1.3,0.1
				c0.3,0.2,0.4,0.5,0.4,0.5c0,0.1,0.1,0.3,0,0.4C38.1,26.2,37.6,26.3,37,26.2L37,26.2z"/>
			<g id="text3928-3" transform="translate(0,12.45)">
				<path id="path998" class="st1" d="M4.4,11.8c0.1,0.1,0.2,0.2,0.2,0.3c0,0.2-0.3,0.5-0.8,0.9c-0.4,0.2-0.7,0.3-1,0.3
					c-0.2,0-0.4-0.1-0.5-0.2c0,0-0.1-0.1-0.1-0.1c0,0,0-0.1,0-0.1c0,0,0.1,0,0.1,0c0.6-0.5,1-0.9,1.1-1.1c0.1-0.2,0.3-0.2,0.3-0.2
					C3.8,11.4,4,11.5,4.4,11.8z M3.1,16c-0.2,0.9-0.5,2.3-1.2,4.3c0.2-0.2,0.4-0.5,0.8-0.9c0-0.1,0.1-0.1,0.1-0.1
					c0.1,0,0.1,0.1,0,0.3c0,0.1-0.3,0.5-0.8,1.3c-0.4,0.6-0.7,1.1-0.8,1.6c-0.1,0.1-0.2,0.2-0.3,0.2c-0.2,0-0.4-0.1-0.6-0.2
					C0.1,22.3,0,22.3,0,22.2c0,0,0-0.1,0.1-0.2c0.3-0.6,0.7-1.6,1.1-3c0.4-1.4,0.6-2.4,0.7-3c0-0.3,0-0.4-0.1-0.4
					c-0.1,0-0.2,0.1-0.3,0.2l-0.6,0.6c-0.2,0.2-0.3,0.2-0.3,0c0-0.1,0-0.1,0.1-0.2c0.3-0.4,0.6-0.8,0.9-1.2c0.1-0.1,0.2-0.2,0.3-0.2
					c0.1,0,0.3,0.1,0.4,0.2c0.3,0.1,0.5,0.1,0.5,0.1c0.1,0.1,0.2,0.3,0.2,0.5C3.1,15.7,3.1,15.8,3.1,16z"/>
				<path id="path1000" class="st1" d="M11.3,19.1c-0.4,0.6-0.9,1.4-1.5,2.5c-0.1,0.3-0.2,0.6-0.3,0.9c-0.1,0.2-0.2,0.3-0.4,0.3
					c-0.1,0-0.3,0-0.5-0.1c-0.2-0.1-0.4-0.2-0.4-0.3c0,0,0-0.1,0.1-0.3c0.4-0.8,0.8-1.9,1.1-3.1c0.3-1.3,0.5-2.3,0.4-3
					c0-0.3-0.1-0.4-0.2-0.4c-0.1,0-0.2,0.1-0.4,0.2c-1.6,1.6-3,3.6-4.1,6.2c-0.1,0.3-0.3,0.5-0.5,0.5c-0.1,0-0.4-0.1-0.7-0.2
					C3.9,22.1,3.8,22,3.8,22c0,0,0-0.1,0.1-0.3c0.4-0.8,0.7-1.8,1.1-3.1c0.4-1.3,0.6-2.4,0.7-3.1c0-0.2,0-0.3,0-0.3
					c0,0-0.1,0.1-0.3,0.3c-0.2,0.2-0.4,0.4-0.7,0.7c-0.1,0.1-0.1,0.1-0.2,0.1c-0.1,0-0.1,0-0.1-0.1c0-0.1,0-0.1,0.1-0.2
					c0.3-0.3,0.6-0.8,1.1-1.3c0.1-0.1,0.2-0.2,0.3-0.2c0.2,0,0.3,0.1,0.4,0.3C6.7,15,7,15.2,6.9,15.5c-0.1,0.7-0.4,2-1.1,3.8
					c0.4-0.8,1-1.7,1.9-2.7c0.8-1,1.4-1.6,1.8-1.8c0.2-0.1,0.3-0.1,0.4-0.1c0.1,0,0.2,0.1,0.4,0.2c0.5,0.2,0.8,0.5,0.8,0.9
					c0,0.4-0.1,1.2-0.3,2.1c-0.2,0.8-0.3,1.4-0.5,1.9c0.2-0.2,0.4-0.5,0.7-0.9c0.1-0.1,0.1-0.1,0.2-0.1c0.1,0,0.1,0.1,0.1,0.2
					C11.3,19,11.3,19,11.3,19.1L11.3,19.1z"/>
				<path id="path1002" class="st1" d="M20.2,8.2c0.1,0.1,0.1,0.1,0.1,0.2c0,0.1-0.1,0.2-0.2,0.2c-0.1,0-0.1,0-0.2,0
					c-0.4-0.2-0.7-0.3-1-0.3c-0.2,0-0.4,0.1-0.6,0.2c-0.6,0.4-1.6,2.5-3,6.3c1,0.2,1.7,0.2,1.9,0.2c0.1,0,0.2,0.1,0.2,0.2
					c0,0.1-0.1,0.2-0.2,0.2c-0.7,0.1-1.5,0.2-2.3,0.3c-0.9,2.6-1.5,4.9-2,7.1c-0.4,1.8-0.6,3-0.6,3.8c0,0.1,0,0.2,0,0.3
					c0,0.1,0,0.2,0,0.3c0,0.1,0,0.2-0.1,0.2c-0.1,0-0.3-0.1-0.7-0.3c-0.4-0.2-0.6-0.5-0.6-0.9c0.5-2.8,1.5-6.3,2.8-10.5
					c-0.5,0-0.8,0-0.9,0c-0.1,0-0.2-0.1-0.3-0.2c-0.1-0.2-0.1-0.3-0.1-0.3c0-0.1,0.1-0.2,0.3-0.2c0.3-0.1,0.6-0.1,0.9-0.2
					c0.3-0.1,0.4-0.2,0.5-0.3c1-2.9,1.8-5,2.4-6c0.5-0.9,0.9-1.3,1.4-1.3C18.6,7.1,19.2,7.5,20.2,8.2L20.2,8.2z"/>
				<path id="path1004" class="st1" d="M23.1,16.4c0,0.6-0.1,1.3-0.4,2.2c-0.4,1.5-1,2.6-1.7,3.4c-0.4,0.4-0.8,0.6-1.3,0.6
					c-0.2,0-0.4,0-0.7-0.1c-0.6,0-1.1-0.2-1.5-0.6c-0.4-0.4-0.6-0.8-0.6-1.4c0-0.7,0.3-1.6,0.7-2.8c0.5-1.3,1-2.3,1.5-2.8
					c0.2-0.3,0.4-0.4,0.6-0.4c0.2,0,0.6,0.2,1,0.7c0.1-0.1,0.4-0.2,0.8-0.4c0.2-0.1,0.4-0.1,0.5-0.1c0.2,0,0.5,0.2,0.8,0.7
					C23,15.8,23.1,16.1,23.1,16.4z M22,16.7c0-0.4,0.1-0.7,0.1-0.8c0-0.3-0.1-0.4-0.2-0.4c-0.1,0-0.1,0-0.2,0l-1.5,0.6
					c-0.2,0.1-0.3,0.1-0.3,0.1c-0.1,0-0.1-0.1-0.2-0.2c-0.4,0.4-0.7,1.1-1,1.9c-0.2,0.7-0.4,1.3-0.5,1.8c-0.1,0.4-0.1,0.7-0.1,1
					c0,1,0.3,1.4,0.9,1.4c0.2,0,0.5-0.1,0.8-0.3c0.5-0.4,1-1.1,1.5-2.2C21.6,18.7,21.9,17.7,22,16.7L22,16.7z"/>
			</g>
		</g>
	</g>
</g>
</svg>
